<svg width="35" height="35" viewBox="0 0 35 35" fill="none" xmlns="http://www.w3.org/2000/svg">
<path d="M32.01 12.7181L31.9736 12.4731L31.9357 12.4818C31.6765 11.27 31.0796 10.1563 30.2139 9.26964C29.3482 8.38295 28.2491 7.75949 27.0438 7.47141C25.8385 7.18333 24.5763 7.2424 23.4032 7.64178C22.2301 8.04116 21.1941 8.76453 20.415 9.7282C19.6359 10.6919 19.1455 11.8564 19.0007 13.0872C18.8559 14.3179 19.0625 15.5645 19.5966 16.6827C20.1307 17.8009 20.9705 18.745 22.0189 19.4058C23.0672 20.0666 24.2812 20.417 25.5204 20.4166C25.8457 20.4166 26.1577 20.367 26.4684 20.3218C26.3677 20.6602 26.2642 21.0043 26.0979 21.3135C25.9317 21.7627 25.6721 22.152 25.414 22.5443C25.1982 22.9687 24.8175 23.256 24.5375 23.6191C24.2444 23.972 23.8448 24.2068 23.5284 24.5C23.2177 24.8062 22.8109 24.9593 22.4871 25.1752C22.1488 25.3691 21.8542 25.5835 21.5392 25.6856L20.7532 26.0093L20.0619 26.2966L20.7677 29.1243L21.6384 28.9143C21.9169 28.8443 22.2567 28.7627 22.6432 28.665C23.0384 28.592 23.4598 28.3923 23.9294 28.21C24.3917 28.0014 24.9298 27.8629 25.4286 27.5289C25.9302 27.211 26.5092 26.9456 27.0196 26.5197C27.514 26.0808 28.1104 25.7002 28.5509 25.1431C29.0321 24.621 29.5075 24.0727 29.8765 23.4485C30.3038 22.8535 30.594 22.2002 30.9002 21.5541C31.1773 20.9081 31.4004 20.2475 31.5827 19.6058C31.9284 18.3195 32.0829 17.0975 32.1427 16.0518C32.1923 15.0048 32.1632 14.1341 32.1019 13.5041C32.0814 13.241 32.0508 12.9788 32.01 12.7181ZM15.9684 12.7181L15.9319 12.4731L15.894 12.4818C15.6348 11.27 15.0379 10.1563 14.1722 9.26964C13.3065 8.38295 12.2074 7.75949 11.0021 7.47141C9.79688 7.18333 8.53467 7.2424 7.36157 7.64178C6.18848 8.04116 5.15243 8.76453 4.37332 9.7282C3.59421 10.6919 3.10387 11.8564 2.95904 13.0872C2.81421 14.3179 3.02081 15.5645 3.55493 16.6827C4.08905 17.8009 4.92887 18.745 5.97721 19.4058C7.02554 20.0666 8.23955 20.417 9.47877 20.4166C9.80398 20.4166 10.1161 20.367 10.4267 20.3218C10.3261 20.6602 10.2225 21.0043 10.0563 21.3135C9.89002 21.7627 9.63044 22.152 9.37232 22.5443C9.15648 22.9687 8.77586 23.256 8.49586 23.6191C8.20273 23.972 7.80315 24.2068 7.48669 24.5C7.17607 24.8062 6.76919 24.9593 6.44544 25.1752C6.10711 25.3691 5.81252 25.5835 5.49752 25.6856L4.71148 26.0093C4.27252 26.1887 4.02169 26.2937 4.02169 26.2937L4.72752 29.1214L5.59815 28.9114C5.87669 28.8414 6.21648 28.7597 6.60294 28.662C6.99815 28.5891 7.41961 28.3893 7.88919 28.207C8.35148 27.9985 8.88961 27.86 9.38836 27.526C9.89002 27.2081 10.469 26.9427 10.9794 26.5168C11.4738 26.0779 12.0702 25.6973 12.5106 25.1402C12.9919 24.6181 13.4673 24.0697 13.8363 23.4456C14.2636 22.8506 14.5538 22.1973 14.86 21.5512C15.1371 20.9052 15.3602 20.2445 15.5425 19.6029C15.8882 18.3166 16.0427 17.0945 16.1025 16.0489C16.1521 15.0018 16.1229 14.1312 16.0617 13.5012C16.0399 13.2391 16.0088 12.9779 15.9684 12.7181Z" fill="#3A75FF"/>
</svg>
